<svg width="268" height="268" viewBox="0 0 268 268" fill="none" xmlns="http://www.w3.org/2000/svg">
<path d="M195.111 125.213C195.421 127.154 195.74 129.095 196.121 130.992H214.87V125.213H195.111ZM198.219 139.651C198.606 140.979 199.016 142.3 199.471 143.615C200.559 144.157 201.621 144.762 202.647 145.436H226.415V139.651H198.219ZM159.629 142.336C158.737 142.66 157.864 143.039 157.007 143.452V143.46C157.866 143.045 158.735 142.66 159.629 142.336ZM73.2656 214.717V220.495H142.688V214.717H73.2656ZM113.696 229.155V234.917H170.849V229.155H113.696Z" fill="#3C6EB4"/>
<path d="M127.957 34.0449C117.677 34.0449 107.604 35.2321 101.605 37.619C85.0856 43.6657 72.3975 60.1791 68.6371 80.1849C63.6854 103.606 63.9806 121.936 59.0645 139.183C61.312 137.469 63.8023 136.1 66.4533 135.121C70.2932 133.601 76.7315 132.839 83.3059 132.839C89.8803 132.839 96.6012 133.603 100.958 135.121C110.529 138.617 118.079 147.599 121.205 158.747H141.554C145.723 151.039 152.086 145.089 159.629 142.336C167.835 139.082 187.194 139.09 196.515 142.336C197.526 142.704 198.508 143.152 199.476 143.632C193.064 125.069 193.879 105.628 188.5 80.1849C184.742 60.1791 172.049 43.6657 155.532 37.619C148.719 35.2405 138.235 34.047 127.957 34.0449Z" fill="#CCCCCC"/>
<path d="M94.7939 104.242C92.9384 104.245 91.1597 105.023 89.8485 106.406C88.5373 107.789 87.8008 109.664 87.8008 111.618C87.8008 113.573 88.5373 115.448 89.8485 116.831C91.1597 118.214 92.9384 118.992 94.7939 118.995C96.6497 118.993 98.429 118.215 99.7407 116.832C101.052 115.449 101.789 113.574 101.789 111.618C101.789 109.664 101.053 107.789 99.7414 106.406C98.4302 105.023 96.6494 104.245 94.7939 104.242ZM165.542 104.242C163.686 104.245 161.908 105.023 160.596 106.406C159.285 107.789 158.549 109.664 158.549 111.618C158.549 113.573 159.285 115.448 160.596 116.831C161.908 118.214 163.686 118.992 165.542 118.995C166.462 118.997 167.374 118.807 168.225 118.437C169.076 118.067 169.849 117.524 170.501 116.839C171.152 116.154 171.669 115.34 172.022 114.444C172.374 113.549 172.556 112.588 172.556 111.618C172.556 110.649 172.374 109.688 172.022 108.793C171.669 107.897 171.152 107.083 170.501 106.398C169.849 105.713 169.076 105.17 168.225 104.8C167.374 104.43 166.462 104.24 165.542 104.242Z" fill="#E7E8E9"/>
<path d="M106.582 106.164L80.5605 113.14L81.3059 115.929L107.331 108.953L106.582 106.164ZM155.827 106.164L155.077 108.953L181.096 115.929L181.846 113.14L155.827 106.164ZM109.186 110.368L83.0165 125.483L84.4612 127.981L110.627 112.868L109.186 110.368ZM153.237 110.368L151.792 112.868L177.96 127.981L179.404 125.483L153.237 110.368ZM111.1 115.383L93.0791 133.429C94.306 133.584 95.4743 133.779 96.5903 133.996L113.141 117.422L111.1 115.383ZM151.321 115.383L149.282 117.422L171.913 140.089C173.194 140.005 174.503 139.949 175.828 139.922L151.321 115.383ZM111.975 121.953L103.69 136.316C104.551 136.741 105.395 137.208 106.213 137.723L114.477 123.394L111.975 121.953ZM150.448 121.953L147.946 123.394L159.015 142.589C159.221 142.507 159.42 142.411 159.629 142.336C160.278 142.078 161.021 141.848 161.8 141.632L150.448 121.953Z" fill="#A7A9AC"/>
<path d="M153.391 106.447C153.391 109.256 152.81 112.038 151.68 114.633C150.551 117.229 148.895 119.588 146.808 121.574C144.72 123.561 142.242 125.137 139.515 126.212C136.788 127.287 133.864 127.84 130.912 127.84C127.96 127.841 125.037 127.288 122.309 126.212C119.581 125.137 117.103 123.562 115.015 121.575C112.928 119.588 111.272 117.23 110.142 114.634C109.013 112.038 108.431 109.256 108.432 106.447C108.432 103.637 109.013 100.855 110.143 98.2598C111.273 95.6643 112.929 93.306 115.016 91.3195C117.104 89.3331 119.582 87.7574 122.309 86.6825C125.037 85.6075 127.96 85.0544 130.912 85.0547C136.874 85.0552 142.591 87.3092 146.806 91.3209C151.021 95.3326 153.391 100.773 153.391 106.447Z" fill="white"/>
<path d="M140.506 102.59C139.752 100.636 139.752 96.7293 137.491 96.7293C135.229 96.7293 133.136 95.2637 130.912 95.2637C128.686 95.2637 126.599 96.7293 124.334 96.7293C122.072 96.7293 122.072 100.636 121.319 102.592C120.565 104.543 130.912 110.891 130.912 110.891C130.912 110.891 141.259 104.543 140.506 102.59Z" fill="#808080"/>
<path d="M120.18 155.545C120.871 157.4 121.415 159.335 121.84 161.326H140.263C141.19 159.289 142.269 157.354 143.477 155.543L120.18 155.545ZM212.675 155.547C213.898 157.384 214.97 159.317 215.883 161.326H239.065V155.547H212.675Z" fill="#3C6EB4"/>
<path d="M83.3075 132.838C76.7331 132.838 70.2927 133.6 66.4528 135.12C55.8877 138.981 47.7828 149.521 45.3792 162.286C44.1229 168.203 43.4006 173.574 42.7871 178.632H124.623C124.01 173.574 123.304 168.206 122.048 162.286C119.647 149.521 111.523 138.983 100.956 135.122C96.5965 133.604 89.8797 132.84 83.3054 132.84L83.3075 132.838Z" fill="#CCCCCC"/>
<path d="M62.1062 177.633C61.1513 177.663 60.2307 178.013 59.4785 178.632H64.8385C64.0577 177.991 63.0968 177.641 62.1062 177.635V177.633ZM107.373 177.633C106.417 177.662 105.496 178.012 104.743 178.632H110.107C109.325 177.99 108.363 177.64 107.371 177.635L107.373 177.633Z" fill="#E7E8E9"/>
<path d="M69.5173 178.359L68.5039 178.632H69.5927L69.5173 178.359ZM101.284 178.359L101.21 178.632H102.299L101.284 178.359Z" fill="#A7A9AC"/>
<path d="M85.2108 165.406C81.4813 165.416 77.9016 166.801 75.2272 169.268C72.5529 171.736 70.9931 175.094 70.877 178.632H99.5236C99.4077 175.097 97.8507 171.742 95.1809 169.275C92.511 166.808 88.9366 165.421 85.2108 165.406Z" fill="white"/>
<path d="M85.212 171.91C83.7883 171.91 82.4546 172.852 81.0078 172.852C79.561 172.852 79.5505 175.34 79.069 176.585C78.9015 177.021 79.6301 177.806 80.6079 178.633H89.812C90.7919 177.806 91.5037 177.021 91.3342 176.585C90.8526 175.34 90.861 172.852 89.4142 172.852C87.9695 172.852 86.6358 171.91 85.212 171.91Z" fill="#808080"/>
<path d="M192.072 3.07237L75.3702 3.41575C74.9382 3.41771 74.5121 3.51654 74.1233 3.70496C73.7345 3.89338 73.3929 4.1666 73.1236 4.5045L0.617072 96.0684C0.351071 96.407 0.164141 96.8009 0.069953 97.2211C-0.0242347 97.6413 -0.0232973 98.0773 0.0726966 98.4971L26.3702 212.32C26.4686 212.744 26.6615 213.14 26.9345 213.479C27.2075 213.818 27.5535 214.091 27.9468 214.277L133.231 264.655C133.623 264.839 134.051 264.933 134.484 264.929C134.917 264.926 135.344 264.825 135.733 264.634L240.73 213.641C241.122 213.45 241.466 213.174 241.735 212.832C242.005 212.49 242.194 212.092 242.288 211.666L267.93 97.6994C268.024 97.2784 268.022 96.8417 267.925 96.4214C267.828 96.0011 267.638 95.6079 267.369 95.2707L194.341 4.14018C194.068 3.80336 193.722 3.53247 193.329 3.34761C192.937 3.16275 192.506 3.06868 192.072 3.07237ZM190.696 8.85112L261.988 97.7936L236.96 209.06L134.481 258.841L31.6967 209.675L6.01895 98.5537L76.7835 9.17775L190.696 8.85112Z" fill="#892CA0"/>
<path d="M223.286 200.45C222.018 191.815 221.402 182.423 219.059 171.374C216.488 157.727 207.809 146.458 196.514 142.334C187.192 139.088 167.836 139.08 159.63 142.334C148.334 146.458 139.656 157.727 137.085 171.374C134.744 182.425 134.126 191.815 132.857 200.45" fill="#CCCCCC"/>
<path d="M154.98 187.785C154.351 187.785 153.728 187.916 153.147 188.169C152.566 188.423 152.038 188.794 151.594 189.262C151.149 189.729 150.797 190.285 150.557 190.896C150.316 191.507 150.193 192.162 150.193 192.823C150.193 193.484 150.316 194.139 150.557 194.75C150.797 195.361 151.149 195.916 151.594 196.384C152.038 196.852 152.566 197.223 153.147 197.476C153.728 197.729 154.351 197.86 154.98 197.86C156.25 197.859 157.467 197.328 158.364 196.383C159.262 195.438 159.765 194.158 159.764 192.823C159.765 191.488 159.262 190.207 158.364 189.262C157.467 188.318 156.25 187.786 154.98 187.785ZM203.366 187.785C202.737 187.785 202.114 187.916 201.534 188.169C200.953 188.423 200.425 188.794 199.98 189.262C199.536 189.729 199.183 190.285 198.943 190.896C198.703 191.507 198.579 192.162 198.58 192.823C198.579 193.484 198.703 194.139 198.943 194.75C199.183 195.361 199.536 195.916 199.98 196.384C200.425 196.852 200.953 197.223 201.534 197.476C202.114 197.729 202.737 197.86 203.366 197.86C204.636 197.859 205.854 197.328 206.751 196.383C207.648 195.438 208.152 194.158 208.15 192.823C208.152 191.488 207.648 190.207 206.751 189.262C205.854 188.318 204.636 187.786 203.366 187.785Z" fill="#E7E8E9"/>
<path d="M162.924 188.654L145.127 193.422L145.877 196.211L163.669 191.443L162.924 188.654ZM196.834 188.654L196.085 191.443L213.882 196.211L214.631 193.422L196.834 188.654ZM164.59 191.569L146.701 201.883L148.142 204.38L166.029 194.071L164.59 191.569ZM195.17 191.569L193.725 194.071L211.612 204.38L213.057 201.883L195.17 191.569Z" fill="#A7A9AC"/>
<path d="M195.047 189.297C195.047 193.167 193.428 196.878 190.545 199.615C187.662 202.352 183.752 203.889 179.675 203.89C175.598 203.89 171.687 202.352 168.804 199.616C165.921 196.879 164.301 193.167 164.301 189.297C164.301 185.426 165.921 181.714 168.804 178.977C171.687 176.241 175.598 174.703 179.675 174.703C183.752 174.704 187.662 176.241 190.545 178.978C193.428 181.715 195.047 185.426 195.047 189.297Z" fill="white"/>
<path d="M186.234 186.662C185.719 185.33 185.719 182.663 184.172 182.663C182.627 182.663 181.199 181.666 179.675 181.666C178.152 181.666 176.722 182.665 175.175 182.665C173.63 182.665 173.63 185.33 173.113 186.664C172.598 187.995 179.675 192.325 179.675 192.325C179.675 192.325 186.751 187.995 186.234 186.662Z" fill="#808080"/>
<path d="M130.914 82.8965C117.386 82.8965 106.271 93.4113 106.271 106.455C106.271 119.499 117.386 130.014 130.914 130.014C144.444 130.014 155.56 119.499 155.56 106.455C155.56 93.4113 144.44 82.8965 130.914 82.8965ZM130.914 87.2285C142.216 87.2285 151.23 95.8715 151.23 106.455C151.23 117.041 142.216 125.68 130.914 125.68C119.614 125.68 110.599 117.041 110.599 106.455C110.599 95.8715 119.614 87.2285 130.914 87.2285ZM85.2118 163.232C76.305 163.232 68.9224 170.057 68.6816 178.633H73.0136C73.2481 172.519 78.5348 167.561 85.2118 167.561C91.8909 167.561 97.1713 172.519 97.4058 178.633H101.736C101.499 170.059 94.1144 163.232 85.2118 163.232ZM179.68 172.542C170.08 172.542 162.134 179.996 162.134 189.288C162.134 198.585 170.08 206.051 179.68 206.051C189.282 206.051 197.223 198.582 197.223 189.288C197.223 179.996 189.284 172.542 179.68 172.542ZM179.68 176.874C187.06 176.874 192.891 182.458 192.891 189.29C192.891 196.116 187.06 201.721 179.68 201.721C172.301 201.721 166.468 196.116 166.468 189.288C166.468 182.463 172.301 176.874 179.68 176.874Z" fill="#60605B"/>
<path d="M33.4199 178.633V184.412H134.887C135.138 182.533 135.417 180.609 135.737 178.633H33.4199ZM84.8299 200.288V206.05H234.876V200.288H223.267L223.287 200.448H132.854L132.875 200.288H84.8299Z" fill="#3C6EB4"/>
<path d="M127.962 31.8809H127.958C117.527 31.8809 107.377 33.0199 100.834 35.614C83.4912 41.9853 70.4157 59.1164 66.5276 79.7419C63.0688 96.1045 62.1517 109.942 60.3113 122.471C59.5261 127.827 58.5567 132.929 57.179 137.917C50.1419 143.476 45.0876 152.083 43.2388 161.89C41.9491 167.989 41.2351 173.49 40.6133 178.632H44.9641C45.5671 173.67 46.2706 168.456 47.4829 162.74L47.4996 162.719V162.682C49.7818 150.573 57.4868 140.714 67.1976 137.169L67.2353 137.148L67.2521 137.132C70.5455 135.825 76.898 135.009 83.3069 135.009C89.7075 135.009 96.3112 135.806 100.233 137.167C109.935 140.718 117.634 150.58 119.914 162.682V162.719L119.931 162.74C121.145 168.456 121.847 173.672 122.45 178.632H126.803C126.181 173.485 125.469 167.975 124.177 161.869C121.643 148.457 113.118 137.259 101.701 133.091H101.684L101.667 133.07C96.8682 131.403 90.0467 130.683 83.3048 130.679C76.5755 130.679 70.0556 131.376 65.6776 133.107C64.593 133.505 63.5419 133.987 62.5118 134.506C63.3593 130.735 64.0577 126.932 64.6056 123.106C66.4795 110.329 67.3588 96.6552 70.7486 80.6296L70.7696 80.6087V80.5752C74.4043 61.229 86.6946 45.3876 102.356 39.655L102.377 39.6382H102.408C107.862 37.4691 117.85 36.2128 127.962 36.2149C138.061 36.2149 148.406 37.4356 154.783 39.655C170.445 45.3855 182.735 61.2269 186.366 80.5731L186.386 80.615V80.6296C189.774 96.6552 190.674 110.329 192.548 123.106C193.392 128.859 194.487 134.433 196.066 139.929C191.053 138.413 184.332 137.73 177.651 137.73C170.47 137.73 163.525 138.484 158.879 140.322C146.748 144.761 137.68 156.654 134.977 170.931C132.598 182.149 131.966 191.615 130.714 200.124L135.008 200.759C136.296 192 136.888 182.698 139.195 171.817L139.216 171.796V171.781C141.662 158.789 149.943 148.172 160.384 144.361H160.399L160.437 144.34C163.996 142.929 170.792 142.058 177.653 142.058C184.51 142.058 191.573 142.91 195.794 144.378H195.815C206.235 148.201 214.495 158.804 216.941 171.781V171.817C219.246 182.696 219.855 192 221.143 200.756L225.441 200.124C224.191 191.613 223.557 182.147 221.18 170.929C218.781 158.247 211.356 147.452 201.227 142.083C199.125 135.775 197.835 129.326 196.828 122.471C194.992 109.951 194.081 96.1234 190.628 79.7796C186.747 59.1185 173.663 41.9371 156.287 35.5763H156.249C148.996 33.0429 138.41 31.883 127.962 31.8809ZM95.3628 57.9753C93.1386 57.9631 90.9415 58.4637 88.9422 59.4383C86.9428 60.413 85.1951 61.8353 83.8346 63.5949L82.5092 65.2992L85.9555 67.9457L87.2767 66.2225C88.1809 65.074 89.3191 64.1311 90.6158 63.4564C91.9125 62.7817 93.338 62.3907 94.7974 62.3093C97.5193 62.1942 100.346 63.2892 102.28 65.2092L103.821 66.7502L106.885 63.6682L105.344 62.146C102.68 59.5166 99.0994 58.023 95.3565 57.9795L95.3628 57.9753ZM165.235 57.9753C161.492 58.02 157.912 59.5151 155.248 62.146L153.707 63.6682L156.754 66.7502L158.297 65.2092C159.285 64.2473 160.457 63.4946 161.743 62.9964C163.028 62.4981 164.402 62.2644 165.78 62.3093C168.659 62.435 171.559 63.9362 173.317 66.2246L174.643 67.9457L178.068 65.2992L176.743 63.5949C175.386 61.8361 173.642 60.414 171.646 59.4393C169.65 58.4646 167.456 57.9636 165.235 57.9753ZM95.2518 77.0598C92.382 77.0609 89.6301 78.2316 87.601 80.3145C85.5719 82.3973 84.4318 85.2218 84.4313 88.1671C84.4313 91.1128 85.5712 93.9379 87.6003 96.0212C89.6294 98.1045 92.3816 99.2754 95.2518 99.2766C96.6742 99.278 98.0829 98.9917 99.3974 98.434C100.712 97.8763 101.906 97.0582 102.913 96.0265C103.919 94.9948 104.717 93.7696 105.262 92.421C105.807 91.0725 106.087 89.627 106.087 88.1671C106.087 86.7075 105.806 85.2622 105.261 83.9139C104.717 82.5656 103.918 81.3407 102.912 80.3091C101.906 79.2776 100.711 78.4597 99.397 77.9022C98.0826 77.3446 96.674 77.0584 95.2518 77.0598ZM165.325 77.0598C162.456 77.0615 159.705 78.2324 157.676 80.3152C155.647 82.398 154.508 85.2222 154.507 88.1671C154.507 91.1124 155.647 93.9372 157.675 96.0204C159.704 98.1037 162.456 99.2749 165.325 99.2766C168.196 99.2754 170.948 98.1045 172.977 96.0212C175.006 93.9379 176.146 91.1128 176.146 88.1671C176.145 85.2222 175.006 82.398 172.977 80.3152C170.948 78.2324 168.195 77.0615 165.325 77.0598ZM130.915 93.0979C129.328 93.0979 128.027 93.5858 126.947 93.9501C125.865 94.3165 125 94.5656 124.334 94.5656C123.147 94.5656 121.981 95.2168 121.346 95.981C120.714 96.7431 120.414 97.5304 120.184 98.2799C119.724 99.7728 119.5 101.291 119.296 101.818C118.832 103.02 119.275 103.977 119.644 104.605C120.01 105.233 120.458 105.727 120.963 106.238C121.976 107.256 123.258 108.276 124.552 109.226C125.877 110.198 127.207 111.081 128.195 111.726L128.143 112.597C127.655 112.995 126.468 114.048 124.499 114.714C123.335 115.107 122.163 115.248 121.145 114.988C120.28 114.766 119.42 114.004 118.536 112.85C118.593 112.394 118.614 112.208 118.716 111.456C118.899 110.141 119.162 108.552 119.282 108.081L115.075 107.03C114.824 108.035 114.611 109.5 114.422 110.859C114.234 112.216 114.096 113.378 114.096 113.378L114.006 114.153L114.422 114.804C115.948 117.203 117.984 118.658 120.077 119.192C122.171 119.728 124.202 119.404 125.898 118.832C128.096 118.085 129.889 116.885 130.877 116.131C131.867 116.885 133.649 118.089 135.841 118.832C137.537 119.406 139.547 119.728 141.641 119.192C143.735 118.656 145.772 117.203 147.296 114.804L147.715 114.155L147.623 113.378C147.623 113.378 147.485 112.216 147.296 110.859C147.108 109.498 146.89 108.035 146.643 107.03L142.439 108.081C142.556 108.552 142.82 110.141 143.004 111.456C143.104 112.197 143.13 112.377 143.182 112.834C142.294 113.998 141.444 114.766 140.573 114.99C139.556 115.248 138.385 115.107 137.221 114.714C135.253 114.048 134.064 112.995 133.578 112.597L133.54 111.783C134.543 111.133 135.902 110.233 137.273 109.228C138.567 108.276 139.849 107.254 140.864 106.234C141.367 105.725 141.819 105.231 142.183 104.605C142.554 103.977 142.993 103.02 142.529 101.816C142.326 101.293 142.085 99.7728 141.624 98.2779C141.394 97.5325 141.117 96.741 140.483 95.9768C139.849 95.2147 138.682 94.5656 137.493 94.5656C136.829 94.5656 135.965 94.3144 134.884 93.9501C133.802 93.5858 132.504 93.0979 130.915 93.0979ZM130.915 97.4299C131.553 97.4299 132.401 97.6769 133.49 98.0434C134.491 98.3825 135.749 98.7552 137.183 98.8243C137.231 98.8976 137.361 99.1384 137.493 99.5676C137.726 100.321 137.962 101.473 138.289 102.593C138.184 102.735 138.058 102.913 137.784 103.19C137.068 103.91 135.9 104.846 134.7 105.725C132.858 107.08 131.706 107.786 130.915 108.282C130.129 107.788 128.955 107.088 127.106 105.727C125.906 104.848 124.761 103.91 124.045 103.19C123.769 102.913 123.647 102.735 123.543 102.593C123.865 101.473 124.104 100.323 124.334 99.5676C124.407 99.3078 124.511 99.0582 124.646 98.8243C126.078 98.7573 127.32 98.3825 128.323 98.0434C129.407 97.6769 130.278 97.4299 130.915 97.4299ZM61.9423 147.334C59.0111 147.46 56.2683 148.892 54.476 151.216L53.1569 152.937L56.5781 155.584L57.9035 153.859C58.4172 153.217 59.0601 152.69 59.7905 152.312C60.5209 151.934 61.3225 151.714 62.1433 151.666C62.9174 151.645 63.688 151.778 64.41 152.058C65.132 152.338 65.7907 152.759 66.3476 153.297L67.8886 154.82L70.9308 151.74L69.3898 150.218C68.4123 149.252 67.2468 148.498 65.9657 148.002C64.6845 147.506 63.315 147.279 61.9423 147.334ZM107.666 147.334C106.295 147.278 104.928 147.506 103.649 148.002C102.37 148.498 101.207 149.252 100.233 150.218L98.6939 151.74L101.736 154.817L103.279 153.297C103.836 152.759 104.494 152.337 105.216 152.057C105.937 151.777 106.707 151.643 107.481 151.664C108.303 151.712 109.105 151.932 109.836 152.31C110.567 152.688 111.21 153.216 111.723 153.859L113.028 155.584L116.47 152.937L115.147 151.216C114.256 150.065 113.126 149.122 111.834 148.451C110.542 147.781 109.12 147.4 107.666 147.334ZM203.149 155.525H203.145C200.408 155.557 197.791 156.65 195.844 158.574L194.303 160.094L197.349 163.172L198.886 161.651C199.496 161.063 200.218 160.603 201.01 160.298C201.801 159.994 202.645 159.851 203.492 159.878C205.251 159.951 207.054 160.877 208.128 162.269L209.453 163.99L212.881 161.346L211.555 159.625C210.62 158.412 209.432 157.419 208.073 156.714C206.713 156.008 205.217 155.609 203.687 155.542C203.509 155.536 203.331 155.525 203.149 155.525ZM155.361 155.525C155.179 155.525 154.999 155.534 154.817 155.544C153.285 155.611 151.786 156.01 150.424 156.715C149.063 157.419 147.871 158.413 146.932 159.625L145.613 161.346L149.055 163.992L150.374 162.269C150.932 161.567 151.633 160.991 152.429 160.579C153.226 160.166 154.101 159.928 154.997 159.878C155.846 159.851 156.693 159.994 157.486 160.299C158.28 160.603 159.005 161.063 159.618 161.651L161.159 163.174L164.205 160.096L162.664 158.574C160.717 156.65 158.098 155.556 155.361 155.525ZM62.3946 160.295C60.5593 160.295 58.7993 161.042 57.5013 162.37C56.2034 163.699 55.4737 165.501 55.4726 167.38C55.4707 168.312 55.6484 169.235 55.9954 170.097C56.3424 170.959 56.8519 171.742 57.4948 172.402C58.1377 173.062 58.9014 173.585 59.7422 173.942C60.5829 174.3 61.4843 174.484 62.3946 174.484C63.3049 174.484 64.2062 174.3 65.0469 173.942C65.8877 173.585 66.6514 173.062 67.2943 172.402C67.9372 171.742 68.4468 170.959 68.7938 170.097C69.1407 169.235 69.3184 168.312 69.3165 167.38C69.3154 165.501 68.5857 163.699 67.2878 162.37C65.9899 161.042 64.2299 160.295 62.3946 160.295ZM107.226 160.295C106.316 160.292 105.414 160.474 104.572 160.829C103.73 161.184 102.965 161.706 102.321 162.364C101.676 163.022 101.164 163.804 100.815 164.664C100.466 165.525 100.286 166.448 100.285 167.38C100.283 168.314 100.462 169.239 100.81 170.101C101.158 170.964 101.669 171.748 102.314 172.409C102.959 173.069 103.725 173.592 104.568 173.948C105.411 174.304 106.314 174.486 107.226 174.484C108.136 174.484 109.038 174.3 109.878 173.942C110.719 173.585 111.483 173.062 112.126 172.402C112.769 171.742 113.278 170.959 113.625 170.097C113.972 169.235 114.15 168.312 114.148 167.38C114.147 165.501 113.417 163.699 112.119 162.37C110.821 161.042 109.061 160.295 107.226 160.295ZM155.284 169.248C153.323 169.251 151.445 170.05 150.059 171.47C148.673 172.89 147.894 174.814 147.893 176.821C147.894 178.828 148.673 180.753 150.058 182.173C151.444 183.593 153.323 184.392 155.284 184.396C156.256 184.397 157.22 184.202 158.119 183.822C159.018 183.442 159.835 182.884 160.523 182.18C161.211 181.477 161.757 180.642 162.13 179.722C162.503 178.802 162.695 177.816 162.696 176.821C162.695 175.825 162.502 174.84 162.13 173.92C161.757 173.001 161.21 172.166 160.522 171.462C159.834 170.759 159.017 170.201 158.118 169.821C157.219 169.441 156.256 169.246 155.284 169.248ZM203.216 169.248C202.244 169.246 201.28 169.441 200.382 169.821C199.483 170.201 198.666 170.759 197.978 171.462C197.289 172.166 196.743 173.001 196.37 173.92C195.997 174.84 195.805 175.825 195.804 176.821C195.805 177.816 195.997 178.802 196.37 179.722C196.742 180.642 197.289 181.477 197.977 182.18C198.665 182.884 199.482 183.442 200.381 183.822C201.28 184.202 202.243 184.397 203.216 184.396C205.177 184.394 207.058 183.595 208.444 182.174C209.831 180.754 210.61 178.829 210.611 176.821C210.609 174.813 209.83 172.888 208.443 171.468C207.057 170.049 205.177 169.25 203.216 169.248ZM85.2102 169.754C84.0251 169.754 83.108 170.104 82.4171 170.336C81.7262 170.567 81.2634 170.68 81.0059 170.68C80.0218 170.68 79.0022 171.258 78.4871 171.877C77.9721 172.495 77.7606 173.092 77.5994 173.615C77.2728 174.668 77.1199 175.636 77.055 175.807C76.6237 176.923 77.0341 177.775 77.3272 178.274C77.4067 178.412 77.4947 178.515 77.5784 178.634H84.1947C83.8688 178.419 83.5483 178.195 83.2337 177.964C82.4841 177.411 81.7534 176.831 81.3493 176.425V176.404C81.4812 175.86 81.6361 175.206 81.7303 174.899C81.7408 174.865 81.7387 174.894 81.7513 174.867C82.5176 174.754 83.286 174.601 83.7948 174.428C84.4899 174.195 84.9715 174.086 85.2102 174.086C85.4467 174.086 85.9095 174.195 86.6046 174.43C87.1134 174.601 87.8881 174.754 88.6523 174.867C88.6628 174.894 88.6586 174.867 88.669 174.899C88.7653 175.206 88.937 175.855 89.0668 176.406L89.0501 176.425C88.646 176.831 87.9195 177.411 87.1678 177.962C86.8578 178.191 86.5436 178.414 86.2256 178.632H92.8419C92.9256 178.517 93.0136 178.41 93.091 178.274C93.3842 177.775 93.7966 176.923 93.3632 175.807C93.3004 175.638 93.1266 174.668 92.7979 173.615C92.6302 172.979 92.3282 172.387 91.9122 171.877C91.3972 171.258 90.3985 170.68 89.4144 170.68C89.1569 170.68 88.69 170.569 87.999 170.336C87.3081 170.104 86.3952 169.754 85.2102 169.754ZM179.678 179.505C178.443 179.505 177.48 179.873 176.741 180.123C176.001 180.372 175.491 180.499 175.183 180.499C174.174 180.499 173.139 181.075 172.607 181.714C172.08 182.348 171.856 182.974 171.686 183.527C171.343 184.632 171.171 185.669 171.089 185.882C170.652 187.013 171.077 187.872 171.376 188.382C171.678 188.897 172.025 189.262 172.394 189.634C173.133 190.374 174.029 191.075 174.929 191.734C175.673 192.279 176.397 192.773 177.015 193.188C176.607 193.512 176.064 193.956 175.072 194.291C174.36 194.532 173.698 194.588 173.171 194.454C172.785 194.356 172.352 193.908 171.921 193.424C171.954 193.158 171.963 193.141 172.011 192.806C172.136 191.917 172.314 190.813 172.373 190.579L168.171 189.528C167.978 190.298 167.846 191.274 167.716 192.206C167.587 193.141 167.499 193.948 167.499 193.948L167.409 194.708L167.827 195.363C168.943 197.118 170.501 198.25 172.099 198.659C173.7 199.067 175.21 198.807 176.452 198.388C177.587 197.991 178.661 197.435 179.64 196.736C180.39 197.264 181.498 197.936 182.831 198.391C184.073 198.809 185.578 199.067 187.178 198.659C188.78 198.25 190.337 197.118 191.455 195.363L191.874 194.708L191.782 193.948C191.782 193.948 191.675 193.144 191.545 192.21C191.418 191.276 191.288 190.298 191.095 189.528L186.891 190.579C186.95 190.813 187.149 191.919 187.272 192.806C187.314 193.141 187.308 193.158 187.341 193.424C186.912 193.906 186.493 194.356 186.11 194.454C185.582 194.588 184.917 194.532 184.205 194.291C183.242 193.964 182.712 193.529 182.304 193.202C182.932 192.788 183.665 192.289 184.425 191.737C185.325 191.075 186.221 190.376 186.96 189.634C187.353 189.264 187.694 188.843 187.976 188.382C188.277 187.869 188.683 187.011 188.248 185.882C188.164 185.669 187.99 184.632 187.647 183.527C187.479 182.974 187.27 182.348 186.744 181.712C186.213 181.075 185.18 180.497 184.171 180.497C183.866 180.497 183.355 180.372 182.613 180.12C181.874 179.869 180.913 179.505 179.678 179.505ZM179.678 183.835C179.965 183.835 180.476 183.965 181.219 184.216C181.959 184.439 182.717 184.596 183.484 184.685C183.512 184.743 183.484 184.706 183.516 184.81C183.629 185.177 183.811 185.88 183.97 186.517L183.897 186.59C183.259 187.19 182.581 187.746 181.868 188.255C180.811 189.029 180.31 189.322 179.678 189.722C179.05 189.325 178.547 189.034 177.486 188.257C176.771 187.748 176.092 187.191 175.453 186.59C175.407 186.542 175.424 186.54 175.384 186.496C175.539 185.872 175.706 185.173 175.817 184.813C175.851 184.702 175.842 184.743 175.87 184.687C176.632 184.598 177.384 184.441 178.118 184.216C178.861 183.965 179.389 183.835 179.676 183.835H179.678Z" fill="black"/>
<path d="M95.2458 74.9043C93.5324 74.905 91.8367 75.2514 90.2602 75.9227C88.6838 76.594 87.259 77.5764 86.071 78.8112C84.5798 80.3386 83.4775 82.202 82.8571 84.2445C82.4022 85.7339 82.2109 87.2913 82.2918 88.8466C82.3932 90.8852 82.9593 92.8737 83.9466 94.6601C84.934 96.4466 86.3167 97.9837 87.9889 99.1541C88.8576 99.7551 89.7962 100.248 90.7841 100.622C93.8687 101.787 97.2858 101.704 100.311 100.392C101.472 99.8884 102.553 99.2152 103.516 98.3941C104.647 97.4403 105.61 96.3029 106.364 95.0294C107.95 92.3627 108.562 89.2278 108.093 86.1603C107.833 84.4469 107.246 82.7997 106.362 81.3091C105.388 79.6745 104.076 78.2662 102.515 77.1781C101.646 76.5778 100.707 76.0856 99.7181 75.7125C98.2896 75.1761 96.7759 74.9023 95.25 74.9043H95.2458ZM165.324 74.9043C163.799 74.9075 162.287 75.1833 160.86 75.7188C159.674 76.1637 158.561 76.7833 157.558 77.5571C156.386 78.4547 155.374 79.5434 154.564 80.7773C152.608 83.7366 151.906 87.351 152.612 90.8273C153.122 93.354 154.349 95.6803 156.147 97.5273C157.029 98.4307 158.036 99.2034 159.137 99.822C160.253 100.444 161.457 100.895 162.706 101.162C164.003 101.437 165.335 101.506 166.653 101.365C169.212 101.098 171.629 100.06 173.583 98.3878C174.876 97.2949 175.946 95.9644 176.737 94.4683C177.984 92.1248 178.505 89.4628 178.234 86.8219C178.038 84.8768 177.42 82.9978 176.425 81.3154C175.343 79.4991 173.846 77.9651 172.057 76.8389C170.976 76.1662 169.801 75.6568 168.571 75.3272C167.512 75.0458 166.419 74.9037 165.324 74.9043ZM95.2458 79.2174H95.25C95.6916 79.2186 96.1325 79.2522 96.5691 79.3179C97.5565 79.4703 98.5088 79.7979 99.381 80.2852C100.12 80.695 100.794 81.2115 101.383 81.8179C102.182 82.6363 102.815 83.6019 103.246 84.6612C103.644 85.6288 103.872 86.6581 103.918 87.7034C103.968 88.767 103.839 89.8314 103.537 90.8524C103.204 91.9566 102.663 92.9871 101.944 93.8883C101.236 94.7676 100.366 95.5031 99.381 96.0554C97.7221 96.974 95.8042 97.3129 93.931 97.0185C91.8112 96.6888 89.8948 95.569 88.5668 93.8841C87.8447 92.9848 87.3043 91.9537 86.9755 90.8482C86.7137 89.9791 86.5824 89.0759 86.5861 88.1682C86.588 87.2608 86.7199 86.3583 86.9776 85.4882C87.3104 84.385 87.8505 83.3553 88.5689 82.4544C89.2745 81.5764 90.1415 80.8416 91.1232 80.2894C92.253 79.6613 93.5111 79.299 94.802 79.23C94.9485 79.2216 95.0972 79.2174 95.2458 79.2174ZM165.324 79.2174C166.197 79.2185 167.066 79.3534 167.899 79.6173C168.975 79.9597 169.972 80.5143 170.83 81.2484C171.698 81.9815 172.414 82.876 172.941 83.8823C173.493 84.9272 173.833 86.0705 173.944 87.247C174.118 89.0446 173.769 90.8545 172.939 92.4583C172.409 93.4619 171.693 94.3557 170.83 95.0922C170.187 95.6375 169.467 96.0861 168.695 96.4239C167.632 96.8863 166.485 97.125 165.326 97.125C164.167 97.125 163.02 96.8863 161.957 96.4239C160.922 95.9766 159.986 95.3282 159.204 94.5165C158.406 93.6977 157.775 92.7321 157.344 91.6732C156.947 90.706 156.721 89.6775 156.674 88.633C156.637 87.8684 156.693 87.1021 156.84 86.3508C157.067 85.2084 157.509 84.1197 158.144 83.1432C158.765 82.1993 159.559 81.3822 160.485 80.7354C161.3 80.1717 162.206 79.753 163.163 79.498C163.868 79.3116 164.594 79.2173 165.324 79.2174ZM62.1583 158.135C62.0801 158.133 62.0019 158.133 61.9238 158.137C57.1187 158.388 53.3164 162.48 53.3164 167.379C53.3164 172.437 57.372 176.64 62.3949 176.64C67.4178 176.64 71.4902 172.437 71.4902 167.379C71.4902 162.32 67.4178 158.137 62.3949 158.137L62.1583 158.135ZM106.992 158.135C106.913 158.133 106.834 158.133 106.755 158.137C101.95 158.388 98.1289 162.48 98.1289 167.379C98.1289 172.437 102.203 176.64 107.226 176.64C112.251 176.64 116.305 172.437 116.305 167.379C116.305 162.32 112.249 158.137 107.226 158.137L106.992 158.135ZM62.3949 162.469C65.0205 162.469 67.1582 164.607 67.1582 167.379C67.1582 170.151 65.0205 172.308 62.3949 172.308C59.7693 172.308 57.6442 170.151 57.6442 167.379C57.6442 164.607 59.7693 162.469 62.3949 162.469ZM107.226 162.469C109.852 162.469 111.975 164.607 111.975 167.379C111.975 170.151 109.852 172.308 107.226 172.308C104.601 172.308 102.461 170.151 102.461 167.379C102.461 164.607 104.601 162.469 107.226 162.469ZM155.284 167.071C149.997 167.071 145.716 171.491 145.716 176.82C145.716 182.15 149.997 186.57 155.284 186.57C160.573 186.57 164.853 182.152 164.853 176.82C164.853 171.491 160.573 167.071 155.284 167.071ZM203.216 167.071C197.93 167.071 193.648 171.491 193.648 176.82C193.648 182.15 197.93 186.57 203.216 186.57C208.505 186.57 212.785 182.152 212.785 176.82C212.785 171.491 208.505 167.071 203.216 167.071ZM155.15 171.401L155.286 171.403C158.176 171.403 160.521 173.777 160.521 176.82C160.521 179.864 158.176 182.238 155.286 182.238C152.397 182.238 150.048 179.864 150.048 176.82C150.048 173.872 152.246 171.543 155.014 171.403C155.059 171.401 155.105 171.399 155.15 171.401ZM203.08 171.401L203.218 171.403C206.108 171.403 208.453 173.777 208.453 176.82C208.453 179.864 206.108 182.238 203.218 182.238C200.329 182.238 197.98 179.864 197.98 176.82C197.98 173.872 200.178 171.543 202.946 171.403C202.991 171.401 203.036 171.399 203.08 171.401Z" fill="#892CA0"/>
<path d="M91.6427 79.5059C90.2312 79.5047 88.8771 80.0863 87.8779 81.1228C86.8787 82.1593 86.3162 83.5659 86.3141 85.0334C86.3125 85.7618 86.4492 86.4833 86.7163 87.1567C86.9834 87.8301 87.3757 88.442 87.8707 88.9575C88.3658 89.4729 88.9538 89.8817 89.601 90.1605C90.2483 90.4392 90.9421 90.5824 91.6427 90.5818C92.3432 90.5824 93.037 90.4392 93.6843 90.1605C94.3316 89.8817 94.9195 89.4729 95.4146 88.9575C95.9096 88.442 96.3019 87.8301 96.569 87.1567C96.8362 86.4833 96.9728 85.7618 96.9712 85.0334C96.9691 83.5659 96.4066 82.1593 95.4074 81.1228C94.4082 80.0863 93.0541 79.5047 91.6427 79.5059ZM161.685 79.5059C160.273 79.5047 158.919 80.0863 157.92 81.1228C156.921 82.1593 156.358 83.5659 156.356 85.0334C156.355 85.7618 156.491 86.4833 156.759 87.1567C157.026 87.8301 157.418 88.442 157.913 88.9575C158.408 89.4729 158.996 89.8817 159.643 90.1605C160.29 90.4392 160.984 90.5824 161.685 90.5818C162.385 90.5818 163.078 90.4382 163.725 90.1592C164.372 89.8802 164.96 89.4713 165.454 88.9559C165.949 88.4406 166.341 87.8288 166.607 87.1557C166.874 86.4826 167.011 85.7614 167.009 85.0334C167.007 83.5666 166.445 82.1607 165.447 81.1243C164.449 80.088 163.096 79.5059 161.685 79.5059ZM60.0898 161.853C59.1873 161.854 58.3219 162.226 57.6839 162.888C57.0459 163.551 56.6875 164.449 56.6875 165.385C56.6872 165.849 56.7752 166.309 56.9463 166.738C57.1174 167.167 57.3683 167.557 57.6847 167.885C58.001 168.213 58.3767 168.474 58.7901 168.651C59.2035 168.829 59.6466 168.92 60.094 168.919C60.5415 168.92 60.9845 168.829 61.398 168.651C61.8114 168.474 62.187 168.213 62.5034 167.885C62.8198 167.557 63.0707 167.167 63.2418 166.738C63.4129 166.309 63.5008 165.849 63.5006 165.385C63.5006 164.921 63.4124 164.462 63.2412 164.033C63.07 163.604 62.819 163.215 62.5027 162.887C62.1863 162.559 61.8108 162.299 61.3975 162.121C60.9842 161.944 60.5413 161.853 60.094 161.853H60.0898ZM105.357 162.36C104.909 162.36 104.467 162.451 104.053 162.629C103.64 162.806 103.265 163.067 102.949 163.395C102.633 163.723 102.382 164.113 102.211 164.542C102.04 164.97 101.952 165.43 101.952 165.894C101.952 166.358 102.04 166.818 102.212 167.246C102.383 167.675 102.634 168.064 102.95 168.392C103.267 168.72 103.642 168.981 104.055 169.158C104.469 169.335 104.912 169.426 105.359 169.426C105.806 169.427 106.25 169.336 106.664 169.159C107.077 168.982 107.453 168.722 107.77 168.394C108.087 168.066 108.338 167.676 108.51 167.247C108.681 166.818 108.77 166.358 108.77 165.894C108.77 165.429 108.682 164.969 108.51 164.54C108.339 164.11 108.087 163.72 107.77 163.392C107.453 163.064 107.077 162.803 106.663 162.626C106.248 162.449 105.805 162.359 105.357 162.36ZM152.822 170.915C151.858 170.914 150.933 171.31 150.25 172.017C149.567 172.723 149.182 173.681 149.179 174.681C149.178 175.178 149.271 175.671 149.454 176.13C149.637 176.589 149.905 177.007 150.243 177.358C150.582 177.71 150.984 177.989 151.426 178.179C151.869 178.369 152.343 178.467 152.822 178.467C153.301 178.467 153.775 178.369 154.218 178.179C154.66 177.989 155.062 177.71 155.401 177.358C155.739 177.007 156.007 176.589 156.19 176.13C156.373 175.671 156.466 175.178 156.465 174.681C156.462 173.681 156.077 172.723 155.394 172.017C154.711 171.31 153.786 170.914 152.822 170.915ZM201.495 171.401C201.016 171.4 200.541 171.498 200.099 171.689C199.656 171.879 199.254 172.158 198.915 172.511C198.577 172.863 198.309 173.281 198.126 173.74C197.944 174.2 197.851 174.693 197.852 175.19C197.854 176.191 198.239 177.15 198.922 177.856C199.605 178.563 200.531 178.96 201.495 178.959C202.46 178.96 203.385 178.563 204.069 177.856C204.752 177.15 205.136 176.191 205.139 175.19C205.14 174.693 205.047 174.2 204.865 173.74C204.682 173.281 204.414 172.863 204.076 172.511C203.737 172.158 203.335 171.879 202.892 171.689C202.449 171.498 201.975 171.4 201.495 171.401Z" fill="white"/>
</svg>
