<?xml version="1.0" encoding="UTF-8" standalone="no"?>
<svg
   width="100"
   height="100"
   viewBox="0 0 100 100"
   fill="none"
   version="1.1"
   id="svg11"
   sodipodi:docname="logo.svg"
   xml:space="preserve"
   inkscape:version="1.2.2 (b0a8486541, 2022-12-01)"
   xmlns:inkscape="http://www.inkscape.org/namespaces/inkscape"
   xmlns:sodipodi="http://sodipodi.sourceforge.net/DTD/sodipodi-0.dtd"
   xmlns="http://www.w3.org/2000/svg"
   xmlns:svg="http://www.w3.org/2000/svg"><defs
     id="defs15" /><sodipodi:namedview
     id="namedview13"
     pagecolor="#ffffff"
     bordercolor="#000000"
     borderopacity="0.25"
     inkscape:showpageshadow="2"
     inkscape:pageopacity="0.0"
     inkscape:pagecheckerboard="0"
     inkscape:deskcolor="#d1d1d1"
     showgrid="false"
     inkscape:zoom="0.921875"
     inkscape:cx="-590.64407"
     inkscape:cy="45.559322"
     inkscape:window-width="3840"
     inkscape:window-height="2132"
     inkscape:window-x="0"
     inkscape:window-y="0"
     inkscape:window-maximized="1"
     inkscape:current-layer="svg11" /><mask
     id="path-1-outside-1_440_239"
     maskUnits="userSpaceOnUse"
     x="20"
     y="3"
     width="217"
     height="250"
     fill="#000000"><rect
       fill="#ffffff"
       x="20"
       y="3"
       width="217"
       height="250"
       id="rect2" /><path
       fill-rule="evenodd"
       clip-rule="evenodd"
       d="m 37.334,4.73224 c -2.675,1.45138 -2.7927,2.21705 -2.7927,18.14106 0,12.0899 0.126,14.8294 0.7351,16.0079 0.7894,1.5265 2.9527,2.8916 4.5819,2.8916 0.9847,0 1.0012,0.1745 0.8723,9.2802 l -0.1318,9.2796 -7.7536,4.3207 c -4.2645,2.3765 -8.2649,4.7971 -8.8901,5.3796 -2.862,2.6658 -2.7404,1.0715 -2.7404,35.8701 v 31.905 l 1.3598,1.169 c 1.716,1.477 2.833,1.477 4.5494,0.001 l 1.3598,-1.169 0.1469,-15.065 0.1473,-15.065 h 54.9762 54.9769 v 11.326 c 0,10.579 -0.069,11.483 -1.053,13.69 -0.579,1.3 -4.693,12.94 -9.141,25.867 l -8.088,23.503 -45.8611,0.124 -45.8619,0.123 v -14.071 c 0,-15.564 -0.2355,-17.108 -2.7016,-17.727 -2.1749,-0.546 -3.7644,0.328 -4.4627,2.453 -0.912,2.778 -0.6402,78.828 0.2898,80.951 0.9154,2.091 2.9444,4.104 5.1784,5.138 1.8425,0.854 4.1836,0.898 47.4009,0.909 l 45.4632,0.01 2.387,2.06 c 13.407,11.565 32.336,11.257 45.184,-0.736 l 2.198,-2.051 2.585,2.387 c 7.755,7.158 17.908,10.921 27.785,10.298 5.692,-0.359 9.207,-1.31 14.538,-3.933 13.157,-6.473 21.087,-19.412 21.077,-34.392 -0.007,-11.66 -4.106,-21.153 -12.455,-28.846 -6.626,-6.106 -13.996,-9.175 -23.039,-9.593 -3.131,-0.145 -5.694,-0.326 -5.694,-0.403 0,-0.077 1.318,-3.962 2.929,-8.635 1.61,-4.672 3.242,-9.977 3.626,-11.788 2.311,-10.907 -1.307,-22.801 -9.474,-31.144 -3.527,-3.603 -7.386,-6.064 -12.677,-8.081 -3.31,-1.262 -4.03,-1.352 -10.815,-1.352 -6.785,0 -7.505,0.09 -10.815,1.352 -3.84,1.464 -8.764,4.179 -9.761,5.38 -0.343,0.412 -0.814,0.75 -1.048,0.75 -0.238,0 -0.425,-10.279 -0.425,-23.3504 0,-22.8621 -0.022,-23.3952 -1.036,-25.4906 -1.175,-2.4279 -2.592,-3.4325 -12.161,-8.6274 -3.393,-1.8425 -6.252,-3.5676 -6.352,-3.8342 -0.1,-0.2665 -0.075,-4.4457 0.056,-9.2869 l 0.237,-8.8018 1.603,-0.301 c 1.917,-0.3595 3.928,-2.5713 4.334,-4.7641 0.158,-0.8587 0.222,-7.7057 0.14,-15.2165 C 132.681,8.59113 132.623,7.85259 131.658,6.5524 131.099,5.80078 130.117,4.9159 129.477,4.58685 128.576,4.12406 118.13,3.99079 83.4861,4.00049 44.7727,4.01115 38.4796,4.11098 37.334,4.73224 Z m 88.313,18.14106 v 11.6305 h -16.962 c -16.3146,0 -16.9975,0.0368 -17.9298,0.9692 -1.4432,1.4431 -1.2925,4.0367 0.3077,5.2953 1.2226,0.9619 1.8521,1.0045 14.8461,1.0045 h 13.57 l -0.256,8.6017 c -0.289,9.6771 0.078,12.3933 1.965,14.5594 0.72,0.8258 4.58,3.2934 8.578,5.4833 3.998,2.1899 7.65,4.3071 8.117,4.705 0.766,0.6533 0.848,1.9064 0.848,13.0053 V 100.41 H 83.7202 28.71 l 0.129,-12.6421 0.1293,-12.6418 7.6611,-4.2563 c 8.4408,-4.689 10.2833,-6.1496 10.9966,-8.716 0.2632,-0.9479 0.4798,-5.9214 0.4812,-11.0524 l 0.0029,-9.3286 h 14.7266 c 13.6668,0 14.8075,-0.0654 15.8465,-0.9067 1.5561,-1.2599 1.5561,-4.1956 0,-5.4556 -1.0486,-0.849 -2.2519,-0.9067 -18.9964,-0.9067 H 41.8103 V 22.8733 11.2429 h 41.9181 41.9186 z m 51.261,99.2317 c 7.598,2.967 13.585,9.339 16.16,17.199 0.916,2.795 1.149,4.543 1.145,8.597 l -0.004,5.088 -4.077,11.909 -4.078,11.909 -3.619,1.629 c -1.991,0.895 -4.886,2.56 -6.433,3.699 l -2.813,2.071 -7.174,-2.609 c -3.945,-1.436 -13.061,-4.724 -20.257,-7.308 -7.197,-2.583 -13.125,-4.73 -13.175,-4.77 -0.227,-0.183 11.044,-32.419 11.989,-34.291 3.434,-6.799 10.057,-12.134 17.357,-13.98 3.1,-0.784 12.094,-0.27 14.979,0.857 z m -122.1317,8.716 c -2.5247,1.565 -2.7893,2.918 -2.7874,14.245 0.0015,9.522 0.0795,10.474 0.9799,11.95 1.8444,3.026 1.5783,3 30.7921,3 29.2191,0 28.6481,0.057 30.5191,-3.037 0.864,-1.429 0.948,-2.504 0.948,-12.228 0,-11.661 -0.107,-12.183 -2.818,-13.836 -1.481,-0.903 -2.655,-0.941 -28.9239,-0.93 -24.9231,0.01 -27.4992,0.085 -28.7098,0.836 z m 53.3157,14.051 -0.133,7.633 -24.3517,0.125 -24.3513,0.126 v -7.758 -7.758 h 24.4845 24.4855 z m 39.646,37.877 c 9.572,3.441 18.023,6.497 18.781,6.789 l 1.377,0.533 -1.048,1.57 c -7.303,10.942 -8.524,25.797 -3.093,37.646 l 1.654,3.609 -2.775,2.804 c -4.642,4.69 -11.631,7.643 -18.132,7.66 -3.684,0.01 -9.661,-1.59 -12.931,-3.461 -3.433,-1.964 -7.751,-6.272 -9.678,-9.654 -2.732,-4.797 -3.67,-8.361 -3.686,-14.015 l -0.015,-5.089 4.986,-14.538 c 6.657,-19.414 6.901,-20.111 7.037,-20.111 0.065,0 7.95,2.816 17.523,6.257 z m 56.615,0.081 c 0.251,0.252 -19.334,58.025 -19.843,58.534 -0.424,0.425 -5.862,-3.561 -8.222,-6.026 -4.695,-4.904 -7.581,-11.138 -8.471,-18.3 -1.903,-15.317 7.84,-29.846 22.781,-33.974 2.58,-0.713 13.101,-0.892 13.755,-0.234 z m 11.254,5.08 c 5.771,4.118 10.235,10.812 12.091,18.131 0.595,2.345 0.741,4.548 0.578,8.722 -0.345,8.832 -3.006,15.096 -8.931,21.021 -3.532,3.532 -7.026,5.731 -11.881,7.476 -3.086,1.11 -4.332,1.281 -9.45,1.299 -3.243,0.011 -6.045,-0.129 -6.226,-0.31 -0.245,-0.245 17.211,-52.156 19.402,-57.701 0.489,-1.238 0.989,-1.084 4.417,1.362 z m -100.88,10.923 c -1.703,5.092 -3.349,10.992 -3.659,13.113 -0.879,6.009 0.423,13.954 3.15,19.227 l 0.792,1.533 H 72.4498 c -32.4568,0 -42.6988,-0.138 -43.1422,-0.581 -0.4342,-0.434 -0.5816,-5.891 -0.5816,-21.565 v -20.983 h 44.5476 44.5474 z"
       id="path4" /></mask><g
     id="g2804"
     transform="matrix(0.17938035,0,0,0.17938035,8.9510319e-6,8.9510319e-6)"><circle
       style="fill:#dde9af;fill-opacity:1;fill-rule:evenodd;stroke:#000000;stroke-width:1.91105;stroke-linejoin:bevel;stop-color:#000000"
       id="path2308"
       cx="278.7373"
       cy="278.7373"
       r="277.78177" /><path
       fill-rule="evenodd"
       clip-rule="evenodd"
       d="m 94.547634,191.06614 c -2.79992,1.51916 -2.92312,2.32059 -2.92312,18.98822 0,12.65447 0.13189,15.5219 0.76943,16.75544 0.82626,1.59778 3.09059,3.02663 4.79587,3.02663 1.03068,0 1.04795,0.18265 0.91303,9.71357 l -0.13795,9.71294 -8.11568,4.52247 c -4.46365,2.48747 -8.65086,5.02111 -9.30525,5.63082 -2.99565,2.79028 -2.86837,1.12153 -2.86837,37.54516 v 33.39491 l 1.4233,1.22359 c 1.79613,1.54597 2.96529,1.54597 4.76184,0.001 l 1.4233,-1.22359 0.15376,-15.7685 0.15418,-15.76851 h 57.543486 57.54423 v 11.8549 c 0,11.07302 -0.0722,12.01924 -1.10217,14.3293 -0.60604,1.36071 -4.91216,13.54427 -9.56787,27.07494 l -8.4657,24.60055 -48.00274,0.12979 -48.003556,0.12874 v -14.72809 c 0,-16.29081 -0.2465,-17.90691 -2.82776,-18.55482 -2.27646,-0.57149 -3.94019,0.34332 -4.6711,2.56755 -0.95459,2.90773 -0.6701,82.50913 0.30333,84.73127 0.95815,2.18864 3.0819,4.29565 5.42022,5.37793 1.92855,0.89388 4.37897,0.93994 49.614436,0.95145 l 47.58626,0.0105 2.49846,2.1562 c 14.03309,12.10506 33.84604,11.78268 47.29401,-0.77037 l 2.30065,-2.14678 2.70571,2.49847 c 8.11715,7.49226 18.74427,11.43099 29.08251,10.77889 5.95781,-0.37576 9.63695,-1.37117 15.2169,-4.11666 13.77141,-6.77528 22.07172,-20.3185 22.06125,-35.99804 -0.007,-12.2045 -4.29774,-22.14081 -13.03662,-30.19306 -6.93542,-6.39114 -14.64959,-9.60345 -24.11488,-10.04097 -3.27721,-0.15177 -5.9599,-0.34123 -5.9599,-0.42182 0,-0.0806 1.37955,-4.14702 3.06578,-9.03824 1.68518,-4.89018 3.3934,-10.44291 3.79533,-12.33848 2.41892,-11.41634 -1.36804,-23.86576 -9.91642,-32.59837 -3.69171,-3.77125 -7.73091,-6.34717 -13.26899,-8.45836 -3.46457,-1.32094 -4.2182,-1.41514 -11.32004,-1.41514 -7.10185,0 -7.85547,0.0942 -11.32004,1.41514 -4.01933,1.53236 -9.17327,4.37415 -10.21683,5.63123 -0.35901,0.43124 -0.85201,0.78503 -1.09693,0.78503 -0.24912,0 -0.44485,-10.75902 -0.44485,-24.44083 0,-23.92971 -0.023,-24.48771 -1.08438,-26.68096 -1.22987,-2.54128 -2.71304,-3.59279 -12.7289,-9.03028 -3.55144,-1.92854 -6.54395,-3.7342 -6.64862,-4.01325 -0.10467,-0.27895 -0.0785,-4.65331 0.0586,-9.72058 l 0.24807,-9.21283 1.67786,-0.31506 c 2.00652,-0.37629 4.11143,-2.69137 4.53639,-4.98657 0.16537,-0.8988 0.23236,-8.06554 0.14653,-15.92708 -0.14653,-13.5903 -0.20724,-14.36333 -1.21731,-15.72424 -0.5851,-0.78672 -1.61296,-1.71292 -2.28285,-2.05733 -0.94307,-0.48441 -11.87688,-0.6239 -48.13859,-0.61375 -40.52125,0.0112 -47.108226,0.11565 -48.307316,0.76592 z m 92.437056,18.98822 v 12.17362 h -17.7541 c -17.07647,0 -17.79126,0.0385 -18.76709,1.01446 -1.5106,1.51049 -1.35286,4.22521 0.32207,5.54258 1.27969,1.00682 1.93859,1.05141 15.53938,1.05141 h 14.20371 l -0.26796,9.00338 c -0.30249,10.12901 0.0816,12.97205 2.05676,15.2393 0.75363,0.86436 4.79388,3.4472 8.97858,5.73936 4.1847,2.29217 8.00724,4.50823 8.49605,4.92472 0.80177,0.6838 0.8876,1.99542 0.8876,13.61262 v 12.85607 H 143.09998 85.520904 l 0.13503,-13.23246 0.13533,-13.23215 8.01886,-4.45506 c 8.834966,-4.90797 10.763506,-6.43678 11.510116,-9.12303 0.27549,-0.99216 0.50221,-6.19791 0.50367,-11.56852 l 0.003,-9.76423 h 15.41431 c 14.30501,0 15.49898,-0.0684 16.5865,-0.94904 1.62877,-1.31874 1.62877,-4.39153 0,-5.71037 -1.09757,-0.88864 -2.35706,-0.94904 -19.88349,-0.94904 H 99.232964 v -12.17362 -12.17352 h 43.875596 43.87613 z M 240.63949,313.92 c 7.95281,3.10555 14.21939,9.77511 16.91464,18.00216 0.95877,2.92552 1.20265,4.75515 1.19847,8.99846 l -0.004,5.3256 -4.26739,12.46513 -4.26843,12.46513 -3.788,1.70507 c -2.08398,0.93679 -5.11417,2.67955 -6.73341,3.87174 l -2.94437,2.16771 -7.50901,-2.73084 c -4.12922,-1.50306 -13.67092,-4.9446 -21.20296,-7.64927 -7.53309,-2.70362 -13.73792,-4.95088 -13.79025,-4.99275 -0.2376,-0.19154 11.55973,-33.93291 12.54886,-35.89232 3.59436,-7.11651 10.52665,-12.70064 18.16754,-14.63284 3.24477,-0.82062 12.65877,-0.28261 15.6785,0.89702 z m -127.83504,9.12302 c -2.6426,1.63808 -2.91956,3.05426 -2.91757,14.91021 0.002,9.96666 0.0832,10.96312 1.02566,12.50804 1.93053,3.16731 1.65201,3.1401 32.23004,3.1401 30.58358,0 29.98591,0.0597 31.94428,-3.17882 0.90435,-1.49573 0.99227,-2.62094 0.99227,-12.79903 0,-12.20555 -0.11199,-12.75192 -2.94959,-14.48211 -1.55016,-0.94517 -2.77899,-0.98495 -30.2746,-0.97343 -26.08696,0.0105 -28.78336,0.089 -30.05049,0.87504 z m 55.80544,14.70715 -0.13921,7.98945 -25.48888,0.13084 -25.48846,0.13188 v -8.12028 -8.12029 h 25.62788 25.62893 z m 41.49741,39.64579 c 10.01899,3.60169 18.86464,6.8004 19.65804,7.10603 l 1.4413,0.55789 -1.09694,1.64332 c -7.64404,11.45297 -8.92205,27.00167 -3.23744,39.404 l 1.73124,3.77753 -2.90458,2.93494 c -4.85878,4.90902 -12.17415,7.99992 -18.97874,8.01771 -3.85603,0.0105 -10.11215,-1.66425 -13.53485,-3.62262 -3.59331,-2.05572 -8.11296,-6.56489 -10.12994,-10.10483 -2.85958,-5.02101 -3.84139,-8.75144 -3.85813,-14.66947 l -0.0157,-5.32665 5.21883,-15.2169 c 6.96787,-20.32059 7.22327,-21.05014 7.36562,-21.05014 0.068,0 8.32125,2.9475 18.34129,6.54919 z m 59.25882,0.0848 c 0.26272,0.26377 -20.23687,60.73466 -20.76964,61.26743 -0.4438,0.44485 -6.13574,-3.72729 -8.60595,-6.3074 -4.91425,-5.13301 -7.93502,-11.65813 -8.86658,-19.15458 -1.99186,-16.03227 8.20612,-31.23975 23.84483,-35.56052 2.70048,-0.7463 13.7128,-0.93366 14.39734,-0.24493 z m 11.77954,5.31723 c 6.04049,4.3103 10.71295,11.3169 12.65562,18.97768 0.62279,2.45451 0.77561,4.76039 0.605,9.1293 -0.36111,9.24444 -3.14638,15.80096 -9.34807,22.00265 -3.69693,3.69693 -7.3541,5.99862 -12.43582,7.82511 -3.23011,1.16184 -4.53429,1.34082 -9.89129,1.35966 -3.39445,0.0115 -6.32729,-0.13502 -6.51675,-0.32447 -0.25644,-0.25645 18.01473,-54.59159 20.30804,-60.39554 0.51184,-1.29581 1.03519,-1.13462 4.62327,1.42561 z m -105.59092,11.43308 c -1.78253,5.32979 -3.5054,11.50531 -3.82987,13.72535 -0.92005,6.28961 0.44275,14.60563 3.2971,20.12487 l 0.82898,1.60459 h -44.54768 c -33.972466,0 -44.692756,-0.14445 -45.156856,-0.60813 -0.45448,-0.45427 -0.60876,-6.1661 -0.60876,-22.57205 v -21.96287 h 46.627886 46.62769 z"
       fill="#2C6DEB"
       id="path7"
       style="fill:#5c9e31;fill-opacity:1;stroke-width:1.0467" /><g
       style="fill:#225500;fill-opacity:1"
       id="g557"
       transform="matrix(1.0528431,0,0,0.85331754,257.4051,260.96339)"><path
         d="m 204.999,62.1945 v -0.0684 c -0.043,-8.737 -8.585,-16.5775 -24.079,-22.1144 -14.238,-5.0924 -33.051,-7.9033 -52.964,-7.9033 -19.913,0 -38.7249,2.8107 -52.9714,7.9033 C 59.5011,45.5516 50.9585,53.3982 50.9155,62.1261 V 195.436 c -0.0014,0.649 0.1591,1.29 0.4668,1.864 1.9665,7.36 10.1578,13.906 23.5607,18.699 14.232,5.083 33.048,7.888 53.013,7.888 19.965,0 38.782,-2.801 53.014,-7.884 15.495,-5.54 24.03,-13.425 24.03,-22.198 z M 77.641,47.451 c 13.4162,-4.7952 31.286,-7.4364 50.316,-7.4364 19.029,0 36.898,2.6413 50.315,7.4364 11.762,4.2036 18.793,9.7001 18.828,14.7035 -0.028,5.027 -7.044,10.5311 -18.788,14.7286 -13.388,4.7876 -31.272,7.4318 -50.354,7.4318 -19.081,0 -36.9659,-2.6353 -50.3569,-7.4215 C 65.8644,72.6959 58.8489,67.1963 58.8146,62.1693 58.8474,57.1526 65.8793,51.6576 77.6441,47.451 Z m 100.669,161.11 c -13.388,4.786 -31.272,7.422 -50.353,7.422 -19.082,0 -36.9668,-2.636 -50.3578,-7.422 -11.7648,-4.206 -18.788,-9.724 -18.788,-14.758 v -30.116 c 4.8843,3.667 10.3318,6.515 16.1289,8.434 14.2233,5.085 33.0499,7.884 53.0169,7.884 19.968,0 38.782,-2.801 53.014,-7.884 5.796,-1.918 11.244,-4.767 16.127,-8.434 v 30.116 c 0,5.036 -7.023,10.552 -18.788,14.758 z m 0,-43.881 c -13.388,4.788 -31.272,7.429 -50.353,7.429 -19.082,0 -36.9668,-2.635 -50.3578,-7.425 -11.7648,-4.203 -18.788,-9.721 -18.788,-14.756 v -30.117 c 4.8843,3.663 10.3318,6.511 16.1289,8.43 14.2233,5.085 33.0499,7.884 53.0169,7.884 19.968,0 38.782,-2.8 53.014,-7.884 5.796,-1.917 11.244,-4.765 16.127,-8.43 v 30.112 c 0,5.036 -7.023,10.552 -18.788,14.757 z m 0,-43.877 c -13.388,4.786 -31.272,7.421 -50.353,7.421 -19.082,0 -36.9668,-2.635 -50.3578,-7.421 -11.7648,-4.207 -18.788,-9.724 -18.788,-14.758 V 75.9588 c 4.8843,3.6655 10.3318,6.5133 16.1289,8.4307 14.2233,5.0848 33.0499,7.8839 53.0169,7.8839 19.968,0 38.782,-2.8003 53.014,-7.8839 5.796,-1.9174 11.244,-4.7652 16.127,-8.4307 v 30.0922 c 0,5.028 -7.023,10.546 -18.788,14.752 z M 82.1653,104.558 c -0.3255,0.996 -1.036,1.821 -1.9724,2.294 -0.9349,0.471 -2.02,0.551 -3.0159,0.221 -3.5881,-1.161 -7.0901,-2.58 -10.4744,-4.245 -1.9517,-0.975 -2.7439,-3.3486 -1.7673,-5.3003 0.975,-1.9516 3.3488,-2.7424 5.3005,-1.7673 3.0427,1.4938 6.1895,2.7676 9.4163,3.8097 0.9944,0.3285 1.8193,1.0379 2.2905,1.9739 0.4712,0.935 0.5512,2.02 0.2227,3.014 z m 0,43.881 c -0.3255,0.996 -1.036,1.821 -1.9724,2.292 -0.9349,0.473 -2.02,0.553 -3.0159,0.223 -3.5881,-1.162 -7.0886,-2.582 -10.4744,-4.245 -1.9517,-0.975 -2.7439,-3.349 -1.7673,-5.3 0.975,-1.952 3.3488,-2.744 5.3005,-1.768 3.0427,1.494 6.1895,2.768 9.4163,3.81 0.9944,0.327 1.8178,1.036 2.289,1.971 0.4727,0.935 0.5529,2.019 0.2244,3.013 z m 0,43.881 c -0.3255,0.996 -1.036,1.821 -1.9724,2.292 -0.9349,0.473 -2.02,0.552 -3.0159,0.222 -3.5881,-1.161 -7.0901,-2.579 -10.4744,-4.244 -1.9517,-0.976 -2.7439,-3.349 -1.7673,-5.3 0.975,-1.953 3.3488,-2.744 5.3005,-1.769 3.0427,1.494 6.191,2.768 9.4163,3.811 0.9944,0.327 1.8178,1.036 2.289,1.971 0.4727,0.935 0.5529,2.019 0.2244,3.013 z"
         fill="#4169e1"
         id="path548"
         style="fill:#225500;fill-opacity:1" /></g><g
       id="g601"
       transform="matrix(8.7892046,0,0,6.4568222,-27.560594,-81.232729)"><g
         id="color"><path
           fill="#b1cc33"
           stroke="none"
           d="m 36.8349,18.0781 c 1.7393,1.6583 1.6481,4.5775 1.6481,4.5775 0,0 -2.9114,0.2303 -4.651,-1.428 -1.7396,-1.6582 -1.6481,-4.5775 -1.6481,-4.5775 0,0 2.9119,-0.2288 4.651,1.428 z"
           id="path559" /><path
           fill="#5c9e31"
           stroke="none"
           d="m 42.0884,54.3627 c -4.6114,1.465 -9.3345,-1.6943 -9.3345,-1.6943 0,0 2.7546,-5.5346 7.3663,-7.0003 4.6117,-1.4657 9.3345,1.6943 9.3345,1.6943 0,0 -2.7576,5.5342 -7.3663,7.0003 z"
           id="path561" /><path
           fill="#b1cc33"
           stroke="none"
           d="m 49.0484,35.6919 c -3.6542,1.0489 -7.2941,-1.5366 -7.2941,-1.5366 0,0 2.2856,-4.2862 5.9401,-5.3357 3.6545,-1.0495 7.2941,1.5366 7.2941,1.5366 0,0 -2.288,4.2858 -5.9401,5.3357 z"
           id="path563" /><path
           fill="#5c9e31"
           stroke="none"
           d="m 27.0179,32.1509 c 3.0883,2.3003 3.5096,6.9616 3.5096,6.9616 0,0 -4.5864,0.9311 -7.6753,-1.3691 -3.0889,-2.3002 -3.5096,-6.9616 -3.5096,-6.9616 0,0 4.5876,-0.9289 7.6753,1.3691 z"
           id="path565" /></g><g
         id="hair" /><g
         id="skin" /><g
         id="skin-shadow" /><g
         id="line"><path
           fill="none"
           stroke="#000000"
           stroke-linecap="round"
           stroke-linejoin="round"
           stroke-width="2"
           d="m 36.8349,18.0781 c 1.7393,1.6583 1.6481,4.5775 1.6481,4.5775 0,0 -2.9114,0.2303 -4.651,-1.428 -1.7396,-1.6582 -1.6481,-4.5775 -1.6481,-4.5775 0,0 2.9119,-0.2288 4.651,1.428 z"
           id="path571" /><path
           fill="none"
           stroke="#000000"
           stroke-linecap="round"
           stroke-linejoin="round"
           stroke-width="2"
           d="m 27.0179,32.1509 c 3.0883,2.3003 3.5096,6.9616 3.5096,6.9616 0,0 -4.5864,0.9311 -7.6753,-1.3691 -3.0889,-2.3002 -3.5096,-6.9616 -3.5096,-6.9616 0,0 4.5876,-0.9289 7.6753,1.3691 z"
           id="path573" /><path
           fill="none"
           stroke="#000000"
           stroke-linecap="round"
           stroke-linejoin="round"
           stroke-width="2"
           d="m 42.0884,54.3627 c -4.6114,1.465 -9.3345,-1.6943 -9.3345,-1.6943 0,0 2.7546,-5.5346 7.3663,-7.0003 4.6117,-1.4657 9.3345,1.6943 9.3345,1.6943 0,0 -2.7576,5.5342 -7.3663,7.0003 z"
           id="path575" /><path
           fill="none"
           stroke="#000000"
           stroke-linecap="round"
           stroke-linejoin="round"
           stroke-width="2"
           d="m 49.0484,35.6919 c -3.6542,1.0489 -7.2941,-1.5366 -7.2941,-1.5366 0,0 2.2856,-4.2862 5.9401,-5.3357 3.6545,-1.0495 7.2941,1.5366 7.2941,1.5366 0,0 -2.288,4.2858 -5.9401,5.3357 z"
           id="path577" /><path
           fill="none"
           stroke="#000000"
           stroke-linecap="round"
           stroke-linejoin="round"
           stroke-width="2"
           d="m 39.9046,25.7818 c 0,4.7785 -2.8879,10.0608 -4.8815,13.1378 -0.8136,1.2558 -1.7383,2.4273 -2.7031,3.5711 -2.5753,3.0534 -5.2237,8.2176 -3.876,15.8715"
           id="path579" /></g></g></g></svg>
